<?xml version="1.0" standalone="no"?><!DOCTYPE svg PUBLIC "-//W3C//DTD SVG 1.1//EN" "http://www.w3.org/Graphics/SVG/1.1/DTD/svg11.dtd"><svg height="1024" node-id="1" sillyvg="true" template-height="1024" template-width="1024" version="1.1" viewBox="0 0 1024 1024" width="1024" xmlns="http://www.w3.org/2000/svg" xmlns:xlink="http://www.w3.org/1999/xlink"><defs node-id="46"><clipPath id="master_svg0_34_907" node-id="3"><path d="M 0.00 0.00 L 1024.00 0.00 L 1024.00 1024.00 L 0.00 1024.00 Z" fill="#000000" fill-rule="nonzero" node-id="49" stroke="none" target-height="1024" target-width="1024" target-x="0" target-y="0"></path></clipPath></defs><g node-id="151"><g clip-path="url(#master_svg0_34_907)" group-id="1" id="sillyvg_g_1" node-id="55"><path d="M 234.60 713.60 L 589.40 919.80 L 871.30 757.10 L 516.50 550.90 L 234.60 713.60 Z" fill="#dbe6fa" fill-rule="nonzero" group-id="1,2" node-id="59" stroke="none" target-height="368.89996" target-width="636.69995" target-x="234.6" target-y="550.9"></path><path d="M 364.70 756.90 L 370.80 760.50 L 597.00 629.90 L 590.80 626.30 L 364.70 756.90 Z M 400.80 777.90 L 406.90 781.40 L 633.00 650.90 L 626.90 647.30 L 400.80 777.90 Z M 436.90 798.90 L 443.00 802.40 L 669.10 671.90 L 663.00 668.30 L 436.90 798.90 Z M 581.20 882.70 L 587.30 886.30 L 813.40 755.70 L 807.30 752.20 L 581.20 882.70 Z M 545.10 861.80 L 551.20 865.30 L 777.30 734.80 L 771.20 731.20 L 545.10 861.80 Z M 509.00 840.80 L 515.20 844.40 L 741.30 713.80 L 735.10 710.20 L 509.00 840.80 Z M 473.00 819.80 L 479.10 823.40 L 705.20 692.80 L 699.10 689.30 L 473.00 819.80 Z M 328.60 735.90 L 334.70 739.50 L 560.80 608.90 L 554.70 605.40 L 328.60 735.90 Z M 292.50 715.00 L 298.60 718.50 L 524.70 588.00 L 518.60 584.40 L 292.50 715.00 Z" fill="#dbe6fa" fill-rule="nonzero" group-id="1,3" node-id="64" stroke="none" target-height="301.89996" target-width="520.9" target-x="292.5" target-y="584.4"></path><path d="M 65.20 701.20 L 420.00 907.40 L 701.90 744.60 L 347.10 538.40 L 65.20 701.20 Z" fill="#ebf2ff" fill-rule="nonzero" group-id="1,4" node-id="69" stroke="none" target-height="369" target-width="636.7" target-x="65.2" target-y="538.4"></path><path d="M 195.20 752.70 L 201.40 756.30 L 427.50 625.80 L 421.30 622.20 L 195.20 752.70 Z M 231.30 773.70 L 237.40 777.30 L 463.50 646.70 L 457.40 643.20 L 231.30 773.70 Z M 267.40 794.70 L 273.50 798.30 L 499.60 667.70 L 493.50 664.20 L 267.40 794.70 Z M 411.80 878.60 L 417.90 882.10 L 644.00 751.60 L 637.90 748.10 L 411.80 878.60 Z M 375.70 857.60 L 381.80 861.20 L 607.90 730.60 L 601.80 727.10 L 375.70 857.60 Z M 339.60 836.60 L 345.70 840.20 L 571.80 709.70 L 565.70 706.10 L 339.60 836.60 Z M 303.50 815.70 L 309.60 819.20 L 535.70 688.70 L 529.60 685.10 L 303.50 815.70 Z M 159.20 731.80 L 165.30 735.40 L 391.40 604.80 L 385.30 601.30 L 159.20 731.80 Z M 123.10 710.80 L 129.20 714.40 L 355.30 583.80 L 349.20 580.30 L 123.10 710.80 Z" fill="#bbcfef" fill-rule="nonzero" group-id="1,5" node-id="74" stroke="none" target-height="301.8" target-width="520.9" target-x="123.1" target-y="580.3"></path><path d="M 137.50 332.40 L 137.70 591.00 L 615.80 868.90 L 615.60 610.30 L 137.50 332.40 Z" fill="#49e4a3" fill-rule="nonzero" group-id="1,6" node-id="79" stroke="none" target-height="536.5" target-width="478.3" target-x="137.5" target-y="332.4"></path><path d="M 615.60 610.30 L 615.80 868.90 L 941.60 680.80 L 941.40 422.20 L 615.60 610.30 Z" fill="#39c988" fill-rule="nonzero" group-id="1,7" node-id="84" stroke="none" target-height="446.7" target-width="326" target-x="615.6" target-y="422.2"></path><path d="M 798.10 664.80 L 798.20 731.20 L 919.10 661.40 L 919.00 595.00 L 798.10 664.80 Z" fill="#ebf2ff" fill-rule="nonzero" group-id="1,8" node-id="89" stroke="none" target-height="136.20001" target-width="121" target-x="798.1" target-y="595"></path><path d="M 137.50 332.40 L 615.60 610.30 L 941.40 422.20 L 463.30 144.40 L 137.50 332.40 Z" fill="#dcbf86" fill-rule="nonzero" group-id="1,9" node-id="94" stroke="none" target-height="465.9" target-width="803.9" target-x="137.5" target-y="144.4"></path><path d="M 137.30 328.00 L 137.50 375.10 L 615.80 653.00 L 615.50 605.90 L 137.30 328.00 Z" fill="#189453" fill-opacity="0.4392157" fill-rule="nonzero" group-id="1,10" node-id="99" stroke="none" target-height="325" target-width="478.5" target-x="137.3" target-y="328"></path><path d="M 615.50 605.90 L 615.80 653.00 L 941.40 465.00 L 941.40 417.80 L 615.50 605.90 Z" fill="#189453" fill-rule="nonzero" group-id="1,11" node-id="104" stroke="none" target-height="235.20001" target-width="325.90002" target-x="615.5" target-y="417.8"></path><path d="M 120.30 300.30 L 120.50 347.40 L 619.10 637.20 L 618.90 590.10 L 120.30 300.30 Z" fill="#39c988" fill-rule="nonzero" group-id="1,12" node-id="109" stroke="none" target-height="336.90002" target-width="498.8" target-x="120.3" target-y="300.3"></path><path d="M 618.90 590.10 L 619.10 637.20 L 958.80 441.00 L 958.60 393.90 L 618.90 590.10 Z" fill="#28af6e" fill-rule="nonzero" group-id="1,13" node-id="114" stroke="none" target-height="243.30002" target-width="339.89996" target-x="618.9" target-y="393.9"></path><path d="M 120.30 300.30 L 618.90 590.10 L 958.60 393.90 L 460.00 104.20 L 120.30 300.30 Z" fill="#49e4a3" fill-rule="nonzero" group-id="1,14" node-id="119" stroke="none" target-height="485.89996" target-width="838.3" target-x="120.3" target-y="104.2"></path><path d="M 364.80 542.60 L 363.50 546.30 L 362.80 550.30 L 362.60 554.60 L 362.90 558.90 L 363.80 563.40 L 365.10 568.10 L 368.80 577.10 L 371.20 581.50 L 374.00 585.80 L 380.10 593.30 L 383.60 596.60 L 387.10 599.30 L 390.70 601.60 L 394.60 603.40 L 398.40 604.50 L 402.10 604.90 L 400.50 607.80 L 398.50 610.00 L 396.20 611.70 L 393.60 612.80 L 390.70 613.40 L 387.40 613.40 L 384.10 612.90 L 380.60 611.70 L 376.60 609.70 L 372.90 607.30 L 369.30 604.40 L 365.90 601.00 L 359.80 593.40 L 357.10 589.20 L 354.80 584.70 L 351.20 575.70 L 350.00 571.00 L 349.30 566.40 L 349.10 562.00 L 349.40 557.90 L 350.10 554.40 L 351.10 551.40 L 352.70 548.60 L 354.50 546.50 L 356.60 544.80 L 359.10 543.60 L 361.80 542.90 L 364.80 542.60 Z" fill="#39c988" fill-rule="nonzero" group-id="1,15" node-id="124" stroke="none" target-height="70.80005" target-width="53" target-x="349.1" target-y="542.6"></path><path d="M 362.70 553.60 L 363.30 560.70 L 364.30 565.50 L 365.80 570.30 L 367.70 575.00 L 372.50 583.70 L 378.30 591.40 L 385.00 597.70 L 388.40 600.10 L 391.80 602.10 L 395.40 603.70 L 398.90 604.60 L 402.10 604.90 L 403.40 601.30 L 404.20 597.40 L 404.40 593.10 L 404.00 588.80 L 403.20 584.30 L 400.20 575.10 L 395.80 566.20 L 393.00 561.90 L 386.90 554.40 L 383.40 551.00 L 379.90 548.30 L 376.30 546.00 L 372.40 544.20 L 368.60 543.10 L 364.90 542.60 L 363.70 545.70 L 362.90 549.30 L 362.70 553.60 Z" fill="#28af6e" fill-rule="nonzero" group-id="1,16" node-id="129" stroke="none" target-height="62.30005" target-width="41.69998" target-x="362.7" target-y="542.6"></path><path d="M 646.60 504.30 L 720.30 427.50 L 608.50 492.10 L 646.60 504.30 Z M 417.40 185.60 L 343.70 262.50 L 455.60 197.90 L 417.40 185.60 Z M 797.40 347.20 L 826.50 316.90 L 644.80 258.60 L 797.40 347.20 Z M 266.60 342.70 L 237.50 373.10 L 419.20 431.40 L 266.60 342.70 Z" fill="#dbe6fa" fill-rule="nonzero" group-id="1,17" node-id="134" stroke="none" target-height="318.69998" target-width="589" target-x="237.5" target-y="185.6"></path><path d="M 235.80 324.80 L 565.90 516.60 L 828.30 365.20 L 498.10 173.30 L 235.80 324.80 Z" fill="#ebf2ff" fill-rule="nonzero" group-id="1,18" node-id="139" stroke="none" target-height="343.3" target-width="592.5" target-x="235.8" target-y="173.3"></path><path d="M 356.80 365.00 L 362.50 368.40 L 572.90 246.90 L 567.20 243.50 L 356.80 365.00 Z M 390.40 384.50 L 396.10 387.80 L 606.50 266.40 L 600.80 263.10 L 390.40 384.50 Z M 424.00 404.10 L 429.70 407.40 L 640.10 285.90 L 634.40 282.60 L 424.00 404.10 Z M 558.30 482.10 L 564.00 485.40 L 774.40 363.90 L 768.70 360.60 L 558.30 482.10 Z M 524.70 462.60 L 530.40 465.90 L 740.80 344.40 L 735.10 341.10 L 524.70 462.60 Z M 491.10 443.10 L 496.80 446.40 L 707.20 324.90 L 701.50 321.60 L 491.10 443.10 Z M 457.60 423.60 L 463.20 426.90 L 673.70 305.40 L 668.00 302.10 L 457.60 423.60 Z M 323.20 345.50 L 328.90 348.80 L 539.30 227.30 L 533.70 224.10 L 323.20 345.50 Z M 289.70 326.00 L 295.30 329.30 L 505.70 207.80 L 500.10 204.50 L 289.70 326.00 Z" fill="#bbcfef" fill-rule="nonzero" group-id="1,19" node-id="144" stroke="none" target-height="280.9" target-width="484.7" target-x="289.7" target-y="204.5"></path><path d="M 362.70 555.80 L 363.30 560.70 L 364.30 565.50 L 365.80 570.30 L 369.90 579.40 L 372.50 583.70 L 378.30 591.40 L 385.00 597.70 L 388.40 600.10 L 391.80 602.10 L 395.40 603.70 L 398.90 604.60 L 402.10 604.90 L 403.90 599.30 L 404.20 596.30 L 404.30 591.80 L 403.70 587.10 L 401.40 578.30 L 362.70 555.80 Z" fill="#ebf2ff" fill-rule="nonzero" group-id="1,20" node-id="149" stroke="none" target-height="49.100037" target-width="41.599976" target-x="362.7" target-y="555.8"></path></g></g></svg>